<?xml version="1.0" encoding="UTF-8"?>
<svg width="122px" height="24px" viewBox="0 0 122 24" version="1.1" xmlns="http://www.w3.org/2000/svg" xmlns:xlink="http://www.w3.org/1999/xlink">
    <title>Logo</title>
    <g id="Site-2" stroke="none" stroke-width="1" fill="none" fill-rule="evenodd">
        <g id="Normi" transform="translate(-40.000000, -18.000000)">
            <g id="Logo" transform="translate(40.000000, 18.000000)">
                <g id="Path-+-Path-+-Oval-Mask" fill="#8B5CF6">
                    <path d="M12.0200465,0 C18.6474635,0 24.0200465,5.372583 24.0200465,12 C24.0200465,18.627417 18.6474635,24 12.0200465,24 C5.3926295,24 0.0200465006,18.627417 0.0200465006,12 C0.0200465006,5.372583 5.3926295,0 12.0200465,0 Z M12.0200465,1.6875 C6.32461002,1.6875 1.7075465,6.30456352 1.7075465,12 C1.7075465,17.6954365 6.32461002,22.3125 12.0200465,22.3125 C17.715483,22.3125 22.3325465,17.6954365 22.3325465,12 C22.3325465,6.30456352 17.715483,1.6875 12.0200465,1.6875 Z" id="Combined-Shape"></path>
                    <path d="M12.9106715,7.875 C13.1784126,7.89515256 13.4429125,7.92553538 13.7039252,7.96561595 C11.1389771,10.1292795 8.93467897,14.3972552 4.04232607,15.2804728 C3.89114593,14.9168771 3.76550697,14.5404061 3.66604698,14.1534323 C4.34703207,13.4518201 4.9673233,12.6195763 5.62145186,11.7937215 L5.89594904,11.4506792 L5.89594904,11.4506792 L6.17585509,11.1105685 C7.73296267,9.2520437 9.60355943,7.62607759 12.9106715,7.875 Z" id="Combined-Shape"></path>
                    <path d="M18.5356715,7.875 C18.9794215,8.02060547 19.428985,8.2111915 19.8783883,8.44091191 C20.3710632,9.52633049 20.6450465,10.7311691 20.6450465,12 C20.6450465,16.763456 16.7835025,20.625 12.0200465,20.625 C8.78939386,20.625 5.97360006,18.8487781 4.49596346,16.2196328 C11.7883417,14.9144197 13.1153947,6.09647169 18.5356715,7.875 Z" id="Combined-Shape"></path>
                </g>
                <path d="M37.4472656,19.1757812 C38.9003906,19.1757812 40.0400391,18.8505859 40.8662109,18.2001953 C41.6923828,17.5498047 42.1054688,16.6533203 42.1054688,15.5107422 C42.1054688,14.9306641 42.0029297,14.4267578 41.7978516,13.9990234 C41.5927734,13.5712891 41.2705078,13.1875 40.8310547,12.8476562 C40.3916016,12.5078125 39.7001953,12.1416016 38.7568359,11.7490234 C37.9189453,11.4033203 37.3388672,11.125 37.0166016,10.9140625 C36.6943359,10.703125 36.4628906,10.4790039 36.3222656,10.2416992 C36.1816406,10.0043945 36.1113281,9.71875 36.1113281,9.38476562 C36.1113281,8.8984375 36.2871094,8.50732422 36.6386719,8.21142578 C36.9902344,7.91552734 37.5058594,7.76757812 38.1855469,7.76757812 C39.0820312,7.76757812 40.1015625,8.0078125 41.2441406,8.48828125 L41.2441406,8.48828125 L41.9121094,6.77441406 C40.6933594,6.23535156 39.46875,5.96582031 38.2382812,5.96582031 C36.9550781,5.96582031 35.9326172,6.2734375 35.1708984,6.88867188 C34.4091797,7.50390625 34.0283203,8.34765625 34.0283203,9.41992188 C34.0283203,10.2753906 34.2685547,11.0078125 34.7490234,11.6171875 C35.2294922,12.2265625 36.0556641,12.7685547 37.2275391,13.2431641 C38.3642578,13.7001953 39.1142578,14.0957031 39.4775391,14.4296875 C39.8408203,14.7636719 40.0224609,15.1708984 40.0224609,15.6513672 C40.0224609,16.1845703 39.824707,16.609375 39.4291992,16.9257812 C39.0336914,17.2421875 38.4199219,17.4003906 37.5878906,17.4003906 C37.0195312,17.4003906 36.4057617,17.3212891 35.746582,17.1630859 C35.0874023,17.0048828 34.4648438,16.7880859 33.8789062,16.5126953 L33.8789062,16.5126953 L33.8789062,18.4990234 C34.8046875,18.9501953 35.9941406,19.1757812 37.4472656,19.1757812 Z M46.4384766,19 L46.4384766,14.1748047 C46.4384766,12.9560547 46.6420898,12.0874023 47.0493164,11.5688477 C47.456543,11.050293 48.09375,10.7910156 48.9609375,10.7910156 C49.6171875,10.7910156 50.0961914,10.9755859 50.3979492,11.3447266 C50.699707,11.7138672 50.8505859,12.2734375 50.8505859,13.0234375 L50.8505859,13.0234375 L50.8505859,19 L52.9248047,19 L52.9248047,12.6630859 C52.9248047,10.2900391 51.7470703,9.10351562 49.3916016,9.10351562 C48.7236328,9.10351562 48.1391602,9.23242188 47.6381836,9.49023438 C47.137207,9.74804688 46.7460938,10.1113281 46.4648438,10.5800781 L46.4648438,10.5800781 L46.3330078,10.5800781 C46.4033203,9.94726562 46.4384766,9.35253906 46.4384766,8.79589844 L46.4384766,8.79589844 L46.4384766,5.32421875 L44.3730469,5.32421875 L44.3730469,19 L46.4384766,19 Z M56.8447266,7.83789062 C57.2080078,7.83789062 57.4907227,7.73681641 57.6928711,7.53466797 C57.8950195,7.33251953 57.9960938,7.05566406 57.9960938,6.70410156 C57.9960938,6.33496094 57.8950195,6.05078125 57.6928711,5.8515625 C57.4907227,5.65234375 57.2080078,5.55273438 56.8447266,5.55273438 C56.4697266,5.55273438 56.1811523,5.65234375 55.9790039,5.8515625 C55.7768555,6.05078125 55.6757812,6.33496094 55.6757812,6.70410156 C55.6757812,7.05566406 55.7768555,7.33251953 55.9790039,7.53466797 C56.1811523,7.73681641 56.4697266,7.83789062 56.8447266,7.83789062 Z M57.8642578,19 L57.8642578,9.27929688 L55.7988281,9.27929688 L55.7988281,19 L57.8642578,19 Z M62.8828125,23.3242188 L62.8828125,19.3427734 C62.8828125,19.1669922 62.8417969,18.6689453 62.7597656,17.8486328 L62.7597656,17.8486328 L62.8828125,17.8486328 C63.5625,18.7333984 64.5175781,19.1757812 65.7480469,19.1757812 C66.9609375,19.1757812 67.9116211,18.7304688 68.6000977,17.8398438 C69.2885742,16.9492188 69.6328125,15.7099609 69.6328125,14.1220703 C69.6328125,12.5341797 69.2944336,11.3007812 68.6176758,10.421875 C67.940918,9.54296875 66.9960938,9.10351562 65.7832031,9.10351562 C64.4941406,9.10351562 63.5273438,9.59570312 62.8828125,10.5800781 L62.8828125,10.5800781 L62.7773438,10.5800781 C62.6308594,9.89453125 62.5341797,9.4609375 62.4873047,9.27929688 L62.4873047,9.27929688 L60.8173828,9.27929688 L60.8173828,23.3242188 L62.8828125,23.3242188 Z M65.2822266,17.4882812 C64.4326172,17.4882812 63.8203125,17.2231445 63.4453125,16.6928711 C63.0703125,16.1625977 62.8828125,15.3056641 62.8828125,14.1220703 L62.8828125,14.1220703 L62.8828125,13.8144531 C62.8828125,12.7597656 63.0717773,11.9921875 63.449707,11.5117188 C63.8276367,11.03125 64.4267578,10.7910156 65.2470703,10.7910156 C65.9912109,10.7910156 66.5551758,11.0708008 66.9389648,11.6303711 C67.3227539,12.1899414 67.5146484,13.0146484 67.5146484,14.1044922 C67.5146484,15.1884766 67.3212891,16.0234375 66.9345703,16.609375 C66.5478516,17.1953125 65.9970703,17.4882812 65.2822266,17.4882812 Z M74.0976562,19 L74.0976562,14.1572266 C74.0976562,12.9501953 74.2836914,12.0874023 74.6557617,11.5688477 C75.027832,11.050293 75.6123047,10.7910156 76.4091797,10.7910156 C77.0068359,10.7910156 77.4462891,10.9741211 77.7275391,11.340332 C78.0087891,11.706543 78.1494141,12.2617188 78.1494141,13.0058594 L78.1494141,13.0058594 L78.1494141,19 L80.2236328,19 L80.2236328,13.8496094 C80.2236328,12.8125 80.409668,12.043457 80.7817383,11.5424805 C81.1538086,11.0415039 81.7412109,10.7910156 82.5439453,10.7910156 C83.1416016,10.7910156 83.5825195,10.9741211 83.8666992,11.340332 C84.1508789,11.706543 84.2929688,12.2617188 84.2929688,13.0058594 L84.2929688,13.0058594 L84.2929688,19 L86.3583984,19 L86.3583984,12.6630859 C86.3583984,11.4619141 86.0932617,10.5683594 85.5629883,9.98242188 C85.0327148,9.39648438 84.1875,9.10351562 83.0273438,9.10351562 C82.3535156,9.10351562 81.7558594,9.23828125 81.234375,9.5078125 C80.7128906,9.77734375 80.3085938,10.1523438 80.0214844,10.6328125 L80.0214844,10.6328125 L79.8808594,10.6328125 C79.3945312,9.61328125 78.4042969,9.10351562 76.9101562,9.10351562 C76.2949219,9.10351562 75.730957,9.22949219 75.2182617,9.48144531 C74.7055664,9.73339844 74.3144531,10.0908203 74.0449219,10.5537109 L74.0449219,10.5537109 L73.9394531,10.5537109 L73.6494141,9.27929688 L72.0322266,9.27929688 L72.0322266,19 L74.0976562,19 Z M90.2871094,7.83789062 C90.6503906,7.83789062 90.9331055,7.73681641 91.1352539,7.53466797 C91.3374023,7.33251953 91.4384766,7.05566406 91.4384766,6.70410156 C91.4384766,6.33496094 91.3374023,6.05078125 91.1352539,5.8515625 C90.9331055,5.65234375 90.6503906,5.55273438 90.2871094,5.55273438 C89.9121094,5.55273438 89.6235352,5.65234375 89.4213867,5.8515625 C89.2192383,6.05078125 89.1181641,6.33496094 89.1181641,6.70410156 C89.1181641,7.05566406 89.2192383,7.33251953 89.4213867,7.53466797 C89.6235352,7.73681641 89.9121094,7.83789062 90.2871094,7.83789062 Z M91.3066406,19 L91.3066406,9.27929688 L89.2412109,9.27929688 L89.2412109,19 L91.3066406,19 Z M97.0634766,23.3242188 C98.7802734,23.3242188 100.092773,23.0253906 101.000977,22.4277344 C101.90918,21.8300781 102.363281,20.9804688 102.363281,19.8789062 C102.363281,19.0175781 102.084961,18.3583984 101.52832,17.9013672 C100.97168,17.4443359 100.157227,17.2158203 99.0849609,17.2158203 L99.0849609,17.2158203 L97.3886719,17.2158203 C96.8320312,17.2158203 96.449707,17.1601562 96.2416992,17.0488281 C96.0336914,16.9375 95.9296875,16.7705078 95.9296875,16.5478516 C95.9296875,16.1787109 96.1523438,15.8564453 96.5976562,15.5810547 C96.8496094,15.6279297 97.1308594,15.6513672 97.4414062,15.6513672 C98.6542969,15.6513672 99.6064453,15.3642578 100.297852,14.7900391 C100.989258,14.2158203 101.334961,13.4277344 101.334961,12.4257812 C101.334961,12.0917969 101.285156,11.7753906 101.185547,11.4765625 C101.085938,11.1777344 100.959961,10.9257812 100.807617,10.7207031 L100.807617,10.7207031 L102.46875,10.4130859 L102.46875,9.27929688 L99.1025391,9.27929688 C98.9501953,9.23828125 98.7231445,9.19873047 98.4213867,9.16064453 C98.1196289,9.12255859 97.8310547,9.10351562 97.5556641,9.10351562 C96.3251953,9.10351562 95.3774414,9.39355469 94.7124023,9.97363281 C94.0473633,10.5537109 93.7148438,11.3710938 93.7148438,12.4257812 C93.7148438,13.0820312 93.871582,13.6547852 94.1850586,14.144043 C94.4985352,14.6333008 94.9072266,14.9863281 95.4111328,15.203125 C95.0068359,15.4492188 94.7021484,15.6982422 94.4970703,15.9501953 C94.2919922,16.2021484 94.1894531,16.5097656 94.1894531,16.8730469 C94.1894531,17.1601562 94.2788086,17.434082 94.4575195,17.6948242 C94.6362305,17.9555664 94.8632812,18.1445312 95.1386719,18.2617188 C94.4589844,18.4199219 93.9301758,18.7026367 93.5522461,19.1098633 C93.1743164,19.5170898 92.9853516,20.0195312 92.9853516,20.6171875 C92.9853516,21.484375 93.3339844,22.1523438 94.03125,22.6210938 C94.7285156,23.0898438 95.7392578,23.3242188 97.0634766,23.3242188 Z M97.5380859,14.3242188 C96.9521484,14.3242188 96.5024414,14.1601562 96.1889648,13.8320312 C95.8754883,13.5039062 95.71875,13.0351562 95.71875,12.4257812 C95.71875,11.7753906 95.8725586,11.2802734 96.1801758,10.9404297 C96.487793,10.6005859 96.9404297,10.4306641 97.5380859,10.4306641 C98.1416016,10.4306641 98.5913086,10.6020508 98.887207,10.9448242 C99.1831055,11.2875977 99.3310547,11.7753906 99.3310547,12.4082031 C99.3310547,13.6855469 98.7333984,14.3242188 97.5380859,14.3242188 Z M97.125,21.9003906 C96.3984375,21.9003906 95.8344727,21.7802734 95.4331055,21.5400391 C95.0317383,21.2998047 94.8310547,20.9570312 94.8310547,20.5117188 C94.8310547,20.0371094 95.0053711,19.6606445 95.3540039,19.3823242 C95.7026367,19.1040039 96.1728516,18.9648438 96.7646484,18.9648438 L96.7646484,18.9648438 L98.3291016,18.9648438 C99.1494141,18.9648438 99.7104492,19.0541992 100.012207,19.2329102 C100.313965,19.4116211 100.464844,19.7119141 100.464844,20.1337891 C100.464844,20.6669922 100.189453,21.0947266 99.6386719,21.4169922 C99.0878906,21.7392578 98.25,21.9003906 97.125,21.9003906 Z M106.335938,19 L106.335938,14.1748047 C106.335938,12.9560547 106.539551,12.0874023 106.946777,11.5688477 C107.354004,11.050293 107.991211,10.7910156 108.858398,10.7910156 C109.514648,10.7910156 109.993652,10.9755859 110.29541,11.3447266 C110.597168,11.7138672 110.748047,12.2734375 110.748047,13.0234375 L110.748047,13.0234375 L110.748047,19 L112.822266,19 L112.822266,12.6630859 C112.822266,10.2900391 111.644531,9.10351562 109.289062,9.10351562 C108.621094,9.10351562 108.036621,9.23242188 107.535645,9.49023438 C107.034668,9.74804688 106.643555,10.1113281 106.362305,10.5800781 L106.362305,10.5800781 L106.230469,10.5800781 C106.300781,9.94726562 106.335938,9.35253906 106.335938,8.79589844 L106.335938,8.79589844 L106.335938,5.32421875 L104.270508,5.32421875 L104.270508,19 L106.335938,19 Z M118.825195,19.1757812 C119.211914,19.1757812 119.585449,19.1420898 119.945801,19.074707 C120.306152,19.0073242 120.600586,18.9238281 120.829102,18.8242188 L120.829102,18.8242188 L120.829102,17.2685547 C120.325195,17.4267578 119.821289,17.5058594 119.317383,17.5058594 C118.913086,17.5058594 118.586426,17.387207 118.337402,17.1499023 C118.088379,16.9125977 117.963867,16.5449219 117.963867,16.046875 L117.963867,16.046875 L117.963867,10.84375 L120.732422,10.84375 L120.732422,9.27929688 L117.963867,9.27929688 L117.963867,7.1171875 L116.689453,7.1171875 L115.986328,9.17382812 L114.5625,9.9296875 L114.5625,10.84375 L115.889648,10.84375 L115.889648,16.0820312 C115.889648,18.1445312 116.868164,19.1757812 118.825195,19.1757812 Z" id="Shipmight" fill="#111827" fill-rule="nonzero"></path>
            </g>
        </g>
    </g>
</svg>